<svg xmlns="http://www.w3.org/2000/svg" xmlns:xlink="http://www.w3.org/1999/xlink" width="702" height="312" style="width:702px;height:312px;background:#fff" fill="none"><svg xmlns="http://www.w3.org/2000/svg" class="role-diagram-draw-area" overflow="visible"><g class="shapes-region" stroke="#000"><g class="composite-shape" data-amt="diagram/shapes/plot"><g class="test-xgi" stroke="#c3c3c3" stroke-width=".5"><path d="M42.735 10v270M139.898 10v270M237.06 10v270M334.223 10v270M431.385 10v270M528.548 10v270M625.71 10v270"/></g><g class="test-ygi" stroke="#c3c3c3" stroke-width=".5"><path d="M20 252.597h620M20 155.434h620M20 58.272h620"/></g><g><g class="test-xti" font-family="Asana-Math,Asana"><path stroke="#323232" d="M20 155.434h616M42.735 151.434v8M139.898 151.434v8M237.06 151.434v8M431.385 151.434v8M528.548 151.434v8M625.71 151.434v8"/><path d="M631 151.834l8 3.6-8 3.6z" fill="#323232" stroke="none"/></g><g class="test-yti" font-family="Asana-Math,Asana"><path stroke="#323232" d="M334.223 14v266M330.223 252.597h8M330.223 58.272h8"/><path d="M330.623 19l3.6-8 3.6 8z" fill="#323232" stroke="none"/></g><g class="test-plot-expression" transform="translate(20 10)"><defs><clipPath id="a"><path d="M1 1h618v268H1z"/></clipPath></defs><g clip-path="url(#a)"><path d="M219.07 165.08l-.02-.08-.2-1-.19-1-.18-1-.16-1-.16-1-.15-1-.13-1-.13-1-.11-1-.11-1-.09-1-.08-1-.08-1-.06-1-.05-1-.04-1-.04-1-.02-1-.01-1v-1l.01-1 .02-1 .03-1 .04-1 .05-1 .06-1 .08-1 .08-1 .09-1 .1-1 .12-1 .12-1 .13-1 .15-1 .15-1 .17-1 .18-1 .19-1 .19-1 .05-.21.16-.79.22-1 .24-1 .24-1 .25-1 .27-1 .28-1 .28-1 .12-.4.18-.6.32-1 .32-1 .34-1 .34-1 .36-1 .21-.55.17-.45.38-1 .4-1 .41-1 .43-1 .28-.64.15-.36.45-1 .47-1 .48-1 .49-1 .02-.05.49-.95.52-1 .54-1 .52-.95.03-.05.56-1 .59-1 .6-1 .29-.48.32-.52.63-1 .65-1 .46-.69.21-.31.69-1 .7-1 .47-.65.25-.35.75-1 .76-1 .31-.4.47-.6.81-1 .78-.95.04-.05.86-1 .87-1 .3-.34.6-.66.92-1 .55-.58.4-.42.98-1 .68-.68.33-.32 1.04-1 .7-.66.36-.34 1.11-1 .6-.53.53-.47 1.17-1 .36-.3.86-.7 1.21-.97.04-.03 1.3-1 .73-.55.61-.45 1.39-1 .06-.04 1.39-.96.68-.46.83-.54 1.24-.8.33-.2 1.63-1 .1-.06 1.62-.94.45-.26 1.35-.74.72-.39 1.18-.61.88-.45 1.13-.55.94-.46 1.19-.54.88-.4 1.39-.6.67-.29 1.77-.71.3-.12 2.07-.78.29-.1 1.77-.62 1.17-.38.9-.29 2.07-.62.31-.09 1.75-.49 2.03-.51.04-.01 2.07-.48 2.06-.42.47-.09 1.6-.3 2.07-.33 2.06-.29.66-.08 1.41-.17 2.07-.2 2.06-.15 2.07-.12 2.07-.06 2.06-.03 2.07.02 2.07.07 2.06.1 2.07.16 2.07.19 1.6.19.46.05 2.07.29 2.07.33 1.78.33.28.05 2.07.43 2.07.47.21.05 1.85.47 1.95.53.12.03 2.07.62 1.08.35.98.32 1.96.68.11.04 2.07.77.47.19 1.59.64.86.36 1.21.52 1.06.48 1.01.46 1.12.54.94.46 1.06.54 1.01.52.89.48 1.18.64.62.36 1.44.83.28.17 1.64 1 .15.09 1.42.91.65.42.85.58 1.21.83.24.17 1.4 1 .43.32.91.68 1.16.89.14.11 1.25 1 .67.55.54.45 1.17 1 .36.31.78.69 1.1 1 .19.17.88.83 1.04 1 .14.14.86.86.98 1 .23.24.72.76.93 1 .42.46.47.54.88 1 .71.84.14.16.83 1 .8 1 .3.38.49.62.76 1 .74 1 .08.1.64.9.71 1 .69 1 .02.04.64.96.65 1 .63 1 .15.23.47.77.6 1 .58 1 .42.73.15.27.55 1 .54 1 .52 1 .3.6.21.4.49 1 .48 1 .46 1 .43.95.02.05.44 1 .42 1 .41 1 .4 1 .38.97.01.03.37 1 .36 1 .35 1 .34 1 .32 1 .31 1v.01l.3.99.29 1 .28 1 .26 1 .26 1 .24 1 .23 1 .21.94.01.06.21 1 .2 1 .19 1 .18 1 .16 1 .16 1 .14 1 .14 1 .12 1 .11 1 .11 1 .09 1 .08 1 .07 1 .06 1 .04.66.01.34.04 1 .03 1 .02 1 .01 1v1l-.01 1-.02 1-.03 1-.04 1-.01.22-.04.78-.07 1-.07 1-.08 1-.1 1-.1 1-.12 1-.12 1-.14 1-.14 1-.16 1-.17 1-.18 1-.19 1-.2 1-.19.92-.02.08-.22 1-.23 1-.25 1-.25 1-.27 1-.28 1-.29 1-.26.86-.04.14-.31 1-.33 1-.34 1-.35 1-.36 1-.33.9-.04.1-.39 1-.4 1-.41 1-.43 1-.4.92-.04.08-.45 1-.47 1-.48 1-.49 1-.14.27-.37.73-.52 1-.54 1-.55 1-.08.14-.49.86-.59 1-.6 1-.39.63-.23.37-.63 1-.66 1-.55.83-.11.17-.69 1-.71 1-.55.77-.17.23-.75 1-.77 1-.38.49-.4.51-.81 1-.83 1-.03.03-.83.97-.87 1-.36.41-.54.59-.93 1-.6.63-.36.37-.98 1-.73.73-.28.27-1.04 1-.74.7-.33.3-1.11 1-.63.56-.51.44-1.18 1-.38.32-.84.68-1.22.98-.03.02-1.31 1-.73.55-.62.45-1.39 1-.06.04-1.4.96-.66.45-.86.55-1.21.78-.36.22-1.65 1-.06.04-1.67.96-.39.23-1.42.77-.65.35-1.26.65-.81.41-1.21.59-.85.41-1.3.59-.77.35-1.52.65-.55.23-1.92.77-.14.06-2.07.77-.49.17-1.58.55-1.39.45-.67.22-2.07.61-.6.17-1.47.4-2.06.52-.35.08-1.72.39-2.07.43-.99.18-1.07.2-2.07.33-2.07.28-1.59.19-.47.06-2.07.19-2.07.15-2.06.11-2.07.07-2.07.02-2.06-.03-2.07-.07-2.07-.11-2.06-.15-2.07-.2-.31-.04-1.76-.21-2.06-.29-2.07-.34-.89-.16-1.18-.22-2.06-.43-1.54-.35-.53-.12-2.07-.53-1.28-.35-.78-.22-2.07-.62-.5-.16-1.57-.51-1.39-.49-.67-.24-2.04-.76-.03-.01-2.07-.83-.36-.16-1.7-.73-.6-.27-1.47-.68-.67-.32-1.4-.68-.62-.32-1.44-.75-.47-.25-1.6-.87-.22-.13-1.73-1-.12-.07-1.52-.93-.54-.34-1.04-.66-1.03-.67-.48-.33-1.46-1-.13-.09-1.27-.91-.79-.58-.56-.42-1.3-1-.21-.16-1.05-.84-1.02-.83-.2-.17-1.17-1-.69-.6-.46-.4-1.1-1-.51-.47-.56-.53-1.05-1-.46-.45-.55-.55-.98-1-.53-.55-.42-.45-.93-1-.72-.79-.18-.21-.88-1-.85-1-.16-.18-.67-.82-.81-1-.58-.74-.21-.26-.76-1-.75-1-.35-.48-.38-.52-.7-1-.69-1-.3-.44-.37-.56-.65-1-.64-1-.4-.66-.21-.34-.6-1-.59-1-.57-1-.1-.18-.45-.82-.54-1-.53-1-.51-1-.04-.08-.45-.92-.48-1-.47-1-.45-1-.21-.49-.23-.51-.42-1-.42-1-.4-1-.38-1-.22-.58-.16-.42-.36-1-.35-1-.34-1-.32-1-.32-1-.22-.73-.08-.27-.29-1-.28-1-.26-1-.26-1-.24-1-.24-1-.22-1-.19-.92" stroke-width="2" stroke="#4480c2"/><g class="arrow-line"><path class="vector-plot real" d="M314.22 145.43l80.68-46.58" stroke="#3cb44b" stroke-width="2"/><path d="M391.103 107.49l7.265-10.637-12.845.973z" stroke="none" fill="#3cb44b" stroke-width="2"/></g></g></g><g class="test-xtl" font-family="&quot;Open Sans&quot;,verdana,arial,sans-serif" text-anchor="middle" font-size="11" dominant-baseline="hanging" stroke="none" fill="#323232"><text x="19.6" y="152.434" transform="translate(20 10)">-3</text><text x="116.763" y="152.434" transform="translate(20 10)">-2</text><text x="213.925" y="152.434" transform="translate(20 10)">-1</text><text x="411.385" y="152.434" transform="translate(20 10)">1</text><text x="508.548" y="152.434" transform="translate(20 10)">2</text><text x="605.71" y="152.434" transform="translate(20 10)">3</text><text x="306.223" y="150.434" transform="translate(20 10)">0</text></g><g class="test-ytl" font-family="&quot;Open Sans&quot;,verdana,arial,sans-serif" text-anchor="end" dominant-baseline="middle" font-size="11" stroke="none" fill="#323232"><text x="306.223" y="242.597" transform="translate(20 10)">-1</text><text x="306.223" y="48.272" transform="translate(20 10)">1</text></g><path class="real" fill="transparent" stroke="none" d="M21 11h618v268H21z"/></g></g></g></svg><svg xmlns="http://www.w3.org/2000/svg" width="700" height="310" style="width:700px;height:310px;background:#fff" font-family="Asana-Math,Asana"><text x="372" y="136.455" style="white-space:pre" fill="#000" font-size="15" font-family="Arial,Helvetica,sans-serif" font-weight="400" dominant-baseline="text-before-edge" text-decoration="none solid #000">θ1</text><text x="430" y="90.443" style="white-space:pre" fill="#000" font-size="15" font-family="Arial,Helvetica,sans-serif" font-weight="400" dominant-baseline="text-before-edge" text-decoration="none solid #000">(√3/2, 0.5)</text></svg></svg>